<?xml version="1.0"?><svg fill="#000000" xmlns="http://www.w3.org/2000/svg" viewBox="0 0 64 64" width="100px" height="100px">    <path d="M 5 10 C 3.346 10 2 11.346 2 13 L 2 49 C 2 50.654 3.346 52 5 52 L 59 52 C 60.654 52 62 50.654 62 49 L 62 13 C 62 11.346 60.654 10 59 10 L 5 10 z M 5 12 L 59 12 C 59.551 12 60 12.449 60 13 L 60 20.3125 L 33.228516 34.349609 C 32.446516 34.702609 31.549312 34.703906 30.820312 34.378906 L 4 20.392578 L 4 13 C 4 12.449 4.449 12 5 12 z M 60 22.570312 L 60 49 C 60 49.551 59.551 50 59 50 L 5 50 C 4.449 50 4 49.551 4 49 L 4 22.648438 L 29.949219 36.177734 C 30.592219 36.465734 31.281516 36.611328 31.978516 36.611328 C 32.693516 36.611328 33.417469 36.457484 34.105469 36.146484 L 60 22.570312 z M 7 44 C 6.448 44 6 44.448 6 45 L 6 47 C 6 47.552 6.448 48 7 48 C 7.552 48 8 47.552 8 47 L 8 45 C 8 44.448 7.552 44 7 44 z M 12 44 C 11.448 44 11 44.448 11 45 L 11 47 C 11 47.552 11.448 48 12 48 C 12.552 48 13 47.552 13 47 L 13 45 C 13 44.448 12.552 44 12 44 z M 17 44 C 16.448 44 16 44.448 16 45 L 16 47 C 16 47.552 16.448 48 17 48 C 17.552 48 18 47.552 18 47 L 18 45 C 18 44.448 17.552 44 17 44 z M 22 44 C 21.448 44 21 44.448 21 45 L 21 47 C 21 47.552 21.448 48 22 48 C 22.552 48 23 47.552 23 47 L 23 45 C 23 44.448 22.552 44 22 44 z M 27 44 C 26.448 44 26 44.448 26 45 L 26 47 C 26 47.552 26.448 48 27 48 C 27.552 48 28 47.552 28 47 L 28 45 C 28 44.448 27.552 44 27 44 z M 32 44 C 31.448 44 31 44.448 31 45 L 31 47 C 31 47.552 31.448 48 32 48 C 32.552 48 33 47.552 33 47 L 33 45 C 33 44.448 32.552 44 32 44 z M 37 44 C 36.448 44 36 44.448 36 45 L 36 47 C 36 47.552 36.448 48 37 48 C 37.552 48 38 47.552 38 47 L 38 45 C 38 44.448 37.552 44 37 44 z M 42 44 C 41.448 44 41 44.448 41 45 L 41 47 C 41 47.552 41.448 48 42 48 C 42.552 48 43 47.552 43 47 L 43 45 C 43 44.448 42.552 44 42 44 z M 47 44 C 46.448 44 46 44.448 46 45 L 46 47 C 46 47.552 46.448 48 47 48 C 47.552 48 48 47.552 48 47 L 48 45 C 48 44.448 47.552 44 47 44 z M 52 44 C 51.448 44 51 44.448 51 45 L 51 47 C 51 47.552 51.448 48 52 48 C 52.552 48 53 47.552 53 47 L 53 45 C 53 44.448 52.552 44 52 44 z M 57 44 C 56.448 44 56 44.448 56 45 L 56 47 C 56 47.552 56.448 48 57 48 C 57.552 48 58 47.552 58 47 L 58 45 C 58 44.448 57.552 44 57 44 z"/></svg>